<svg width="48" height="48" viewBox="0 0 48 48" fill="none" xmlns="http://www.w3.org/2000/svg">
<path d="M24 15.3281C22.5984 15.3281 21.2812 15.8719 20.2875 16.8656C19.7992 17.3526 19.4119 17.9312 19.1481 18.5684C18.8842 19.2055 18.7489 19.8885 18.75 20.5781C18.75 21.9797 19.2984 23.2969 20.2875 24.2906C20.7744 24.779 21.3531 25.1662 21.9902 25.43C22.6274 25.6939 23.3104 25.8292 24 25.8281C25.4016 25.8281 26.7188 25.2797 27.7125 24.2906C28.7063 23.2969 29.25 21.9797 29.25 20.5781C29.25 19.1766 28.7063 17.8594 27.7125 16.8656C26.7188 15.8719 25.4016 15.3281 24 15.3281ZM40.0594 13.5516C39.1769 11.5166 37.9045 9.67416 36.3141 8.12812C34.7184 6.56812 32.8373 5.32996 30.7734 4.48125C28.6266 3.59062 26.3484 3.14062 24 3.14062C21.6516 3.14062 19.3734 3.59063 17.2266 4.47656C15.15 5.33437 13.2891 6.5625 11.6859 8.12344C10.0965 9.67034 8.82429 11.5126 7.94062 13.5469C7.02656 15.6562 6.5625 17.8969 6.5625 20.2031C6.5625 23.5125 7.35469 26.8078 8.91094 29.9859C10.1625 32.5406 11.9109 35.0297 14.1141 37.3969C17.8781 41.4375 21.825 43.9078 22.9453 44.5687C23.2633 44.7566 23.626 44.8553 23.9953 44.8547C24.3609 44.8547 24.7219 44.7609 25.0453 44.5687C26.1656 43.9078 30.1125 41.4375 33.8766 37.3969C36.0797 35.0344 37.8281 32.5406 39.0797 29.9859C40.6453 26.8125 41.4375 23.5219 41.4375 20.2078C41.4375 17.9016 40.9734 15.6609 40.0594 13.5516ZM24 28.8281C19.4438 28.8281 15.75 25.1344 15.75 20.5781C15.75 16.0219 19.4438 12.3281 24 12.3281C28.5562 12.3281 32.25 16.0219 32.25 20.5781C32.25 25.1344 28.5562 28.8281 24 28.8281Z" fill="#EB5757"/>
</svg>
